<mxfile host="app.diagrams.net" modified="2022-03-30T10:17:38.389Z" agent="5.0 (Windows NT 10.0; Win64; x64) AppleWebKit/537.36 (KHTML, like Gecko) Chrome/99.0.4844.74 Safari/537.36 Edg/99.0.1150.55" etag="UmQ1zhyfUMhKBl3sShg4" version="17.2.4" type="github">
  <diagram id="Lg-g-w3z7CyOHuP2JqrU" name="Page-1">
    <mxGraphModel dx="1021" dy="520" grid="1" gridSize="10" guides="1" tooltips="1" connect="1" arrows="1" fold="1" page="1" pageScale="1" pageWidth="1600" pageHeight="900" math="0" shadow="0">
      <root>
        <mxCell id="0" />
        <mxCell id="1" parent="0" />
        <mxCell id="gCBwe_l6RAR-JxXOp8Bn-33" style="edgeStyle=orthogonalEdgeStyle;rounded=0;orthogonalLoop=1;jettySize=auto;html=1;exitX=0;exitY=0.5;exitDx=0;exitDy=0;endArrow=none;endFill=0;fillColor=#000000;" parent="1" source="gCBwe_l6RAR-JxXOp8Bn-1" target="gCBwe_l6RAR-JxXOp8Bn-32" edge="1">
          <mxGeometry relative="1" as="geometry" />
        </mxCell>
        <mxCell id="gCBwe_l6RAR-JxXOp8Bn-123" style="edgeStyle=orthogonalEdgeStyle;rounded=0;orthogonalLoop=1;jettySize=auto;html=1;exitX=0;exitY=0;exitDx=0;exitDy=0;endArrow=none;endFill=0;fillColor=#000000;" parent="1" source="gCBwe_l6RAR-JxXOp8Bn-1" target="gCBwe_l6RAR-JxXOp8Bn-120" edge="1">
          <mxGeometry relative="1" as="geometry" />
        </mxCell>
        <mxCell id="gCBwe_l6RAR-JxXOp8Bn-127" style="edgeStyle=orthogonalEdgeStyle;rounded=0;orthogonalLoop=1;jettySize=auto;html=1;exitX=1;exitY=0;exitDx=0;exitDy=0;entryX=0.5;entryY=1;entryDx=0;entryDy=0;endArrow=none;endFill=0;fillColor=#000000;" parent="1" source="gCBwe_l6RAR-JxXOp8Bn-1" target="gCBwe_l6RAR-JxXOp8Bn-125" edge="1">
          <mxGeometry relative="1" as="geometry" />
        </mxCell>
        <mxCell id="gCBwe_l6RAR-JxXOp8Bn-131" style="edgeStyle=orthogonalEdgeStyle;rounded=0;orthogonalLoop=1;jettySize=auto;html=1;exitX=1;exitY=0.25;exitDx=0;exitDy=0;entryX=0.5;entryY=1;entryDx=0;entryDy=0;endArrow=none;endFill=0;fillColor=#000000;" parent="1" source="gCBwe_l6RAR-JxXOp8Bn-1" target="gCBwe_l6RAR-JxXOp8Bn-130" edge="1">
          <mxGeometry relative="1" as="geometry" />
        </mxCell>
        <mxCell id="gCBwe_l6RAR-JxXOp8Bn-1" value="Utente" style="whiteSpace=wrap;html=1;align=center;" parent="1" vertex="1">
          <mxGeometry x="470" y="165" width="100" height="40" as="geometry" />
        </mxCell>
        <mxCell id="gCBwe_l6RAR-JxXOp8Bn-13" style="edgeStyle=orthogonalEdgeStyle;rounded=0;orthogonalLoop=1;jettySize=auto;html=1;exitX=0.5;exitY=0;exitDx=0;exitDy=0;entryX=1;entryY=-0.05;entryDx=0;entryDy=0;endArrow=none;endFill=0;fillColor=#000000;entryPerimeter=0;" parent="1" source="gCBwe_l6RAR-JxXOp8Bn-3" target="dC8Jk2VTaf20xfGuy9kK-8" edge="1">
          <mxGeometry relative="1" as="geometry">
            <mxPoint x="800" y="115" as="targetPoint" />
            <Array as="points">
              <mxPoint x="710" y="110" />
              <mxPoint x="820" y="110" />
            </Array>
          </mxGeometry>
        </mxCell>
        <mxCell id="gCBwe_l6RAR-JxXOp8Bn-3" value="Fornisce" style="shape=rhombus;perimeter=rhombusPerimeter;whiteSpace=wrap;html=1;align=center;" parent="1" vertex="1">
          <mxGeometry x="650" y="175" width="120" height="60" as="geometry" />
        </mxCell>
        <mxCell id="gCBwe_l6RAR-JxXOp8Bn-5" value="" style="shape=flexArrow;endArrow=classic;html=1;rounded=0;entryX=0.5;entryY=1;entryDx=0;entryDy=0;fillColor=#000000;" parent="1" target="gCBwe_l6RAR-JxXOp8Bn-1" edge="1">
          <mxGeometry width="50" height="50" relative="1" as="geometry">
            <mxPoint x="520" y="245" as="sourcePoint" />
            <mxPoint x="540" y="225" as="targetPoint" />
          </mxGeometry>
        </mxCell>
        <mxCell id="gCBwe_l6RAR-JxXOp8Bn-6" value="" style="endArrow=none;html=1;rounded=0;fillColor=#000000;" parent="1" edge="1">
          <mxGeometry width="50" height="50" relative="1" as="geometry">
            <mxPoint x="440" y="245" as="sourcePoint" />
            <mxPoint x="600" y="245" as="targetPoint" />
          </mxGeometry>
        </mxCell>
        <mxCell id="gCBwe_l6RAR-JxXOp8Bn-8" style="edgeStyle=orthogonalEdgeStyle;rounded=0;orthogonalLoop=1;jettySize=auto;html=1;exitX=0.5;exitY=0;exitDx=0;exitDy=0;fillColor=#000000;endArrow=none;endFill=0;" parent="1" source="gCBwe_l6RAR-JxXOp8Bn-7" edge="1">
          <mxGeometry relative="1" as="geometry">
            <mxPoint x="440" y="245" as="targetPoint" />
          </mxGeometry>
        </mxCell>
        <mxCell id="gCBwe_l6RAR-JxXOp8Bn-31" style="edgeStyle=orthogonalEdgeStyle;rounded=0;orthogonalLoop=1;jettySize=auto;html=1;exitX=0.5;exitY=1;exitDx=0;exitDy=0;entryX=0.5;entryY=0;entryDx=0;entryDy=0;endArrow=none;endFill=0;fillColor=#000000;" parent="1" source="gCBwe_l6RAR-JxXOp8Bn-7" target="gCBwe_l6RAR-JxXOp8Bn-29" edge="1">
          <mxGeometry relative="1" as="geometry" />
        </mxCell>
        <mxCell id="gCBwe_l6RAR-JxXOp8Bn-7" value="Nuotatore Libero" style="whiteSpace=wrap;html=1;align=center;" parent="1" vertex="1">
          <mxGeometry x="390" y="275" width="100" height="40" as="geometry" />
        </mxCell>
        <mxCell id="gCBwe_l6RAR-JxXOp8Bn-10" style="edgeStyle=orthogonalEdgeStyle;rounded=0;orthogonalLoop=1;jettySize=auto;html=1;exitX=0.5;exitY=0;exitDx=0;exitDy=0;endArrow=none;endFill=0;fillColor=#000000;" parent="1" source="gCBwe_l6RAR-JxXOp8Bn-9" edge="1">
          <mxGeometry relative="1" as="geometry">
            <mxPoint x="600" y="245" as="targetPoint" />
          </mxGeometry>
        </mxCell>
        <mxCell id="gCBwe_l6RAR-JxXOp8Bn-12" style="edgeStyle=orthogonalEdgeStyle;rounded=0;orthogonalLoop=1;jettySize=auto;html=1;exitX=0.75;exitY=0;exitDx=0;exitDy=0;entryX=0;entryY=0.5;entryDx=0;entryDy=0;endArrow=none;endFill=0;fillColor=#000000;" parent="1" source="gCBwe_l6RAR-JxXOp8Bn-9" target="gCBwe_l6RAR-JxXOp8Bn-3" edge="1">
          <mxGeometry relative="1" as="geometry" />
        </mxCell>
        <mxCell id="gCBwe_l6RAR-JxXOp8Bn-16" style="edgeStyle=orthogonalEdgeStyle;rounded=0;orthogonalLoop=1;jettySize=auto;html=1;exitX=0.5;exitY=1;exitDx=0;exitDy=0;entryX=0;entryY=0.5;entryDx=0;entryDy=0;endArrow=none;endFill=0;fillColor=#000000;" parent="1" source="gCBwe_l6RAR-JxXOp8Bn-9" target="gCBwe_l6RAR-JxXOp8Bn-15" edge="1">
          <mxGeometry relative="1" as="geometry" />
        </mxCell>
        <mxCell id="gCBwe_l6RAR-JxXOp8Bn-9" value="Iscritto ai Corsi" style="whiteSpace=wrap;html=1;align=center;" parent="1" vertex="1">
          <mxGeometry x="550" y="275" width="100" height="40" as="geometry" />
        </mxCell>
        <mxCell id="gCBwe_l6RAR-JxXOp8Bn-20" style="edgeStyle=orthogonalEdgeStyle;rounded=0;orthogonalLoop=1;jettySize=auto;html=1;exitX=1;exitY=0.5;exitDx=0;exitDy=0;endArrow=none;endFill=0;fillColor=#000000;entryX=0;entryY=0.5;entryDx=0;entryDy=0;" parent="1" source="gCBwe_l6RAR-JxXOp8Bn-14" target="gCBwe_l6RAR-JxXOp8Bn-19" edge="1">
          <mxGeometry relative="1" as="geometry">
            <mxPoint x="1040" y="365.4" as="targetPoint" />
          </mxGeometry>
        </mxCell>
        <mxCell id="gCBwe_l6RAR-JxXOp8Bn-36" style="edgeStyle=orthogonalEdgeStyle;rounded=0;orthogonalLoop=1;jettySize=auto;html=1;exitX=0.5;exitY=1;exitDx=0;exitDy=0;entryX=0.5;entryY=0;entryDx=0;entryDy=0;endArrow=none;endFill=0;fillColor=#000000;" parent="1" source="gCBwe_l6RAR-JxXOp8Bn-14" target="gCBwe_l6RAR-JxXOp8Bn-35" edge="1">
          <mxGeometry relative="1" as="geometry" />
        </mxCell>
        <mxCell id="gCBwe_l6RAR-JxXOp8Bn-161" style="edgeStyle=orthogonalEdgeStyle;rounded=0;orthogonalLoop=1;jettySize=auto;html=1;exitX=0.75;exitY=1;exitDx=0;exitDy=0;entryX=0.5;entryY=0;entryDx=0;entryDy=0;endArrow=none;endFill=0;fillColor=#000000;" parent="1" source="gCBwe_l6RAR-JxXOp8Bn-14" target="gCBwe_l6RAR-JxXOp8Bn-160" edge="1">
          <mxGeometry relative="1" as="geometry" />
        </mxCell>
        <mxCell id="gCBwe_l6RAR-JxXOp8Bn-14" value="Corso" style="whiteSpace=wrap;html=1;align=center;" parent="1" vertex="1">
          <mxGeometry x="850" y="345" width="100" height="40" as="geometry" />
        </mxCell>
        <mxCell id="gCBwe_l6RAR-JxXOp8Bn-17" style="edgeStyle=orthogonalEdgeStyle;rounded=0;orthogonalLoop=1;jettySize=auto;html=1;exitX=1;exitY=0.5;exitDx=0;exitDy=0;entryX=0;entryY=0.5;entryDx=0;entryDy=0;endArrow=none;endFill=0;fillColor=#000000;" parent="1" source="gCBwe_l6RAR-JxXOp8Bn-15" target="gCBwe_l6RAR-JxXOp8Bn-14" edge="1">
          <mxGeometry relative="1" as="geometry" />
        </mxCell>
        <mxCell id="gCBwe_l6RAR-JxXOp8Bn-15" value="Frequenta" style="shape=rhombus;perimeter=rhombusPerimeter;whiteSpace=wrap;html=1;align=center;" parent="1" vertex="1">
          <mxGeometry x="630" y="335" width="120" height="60" as="geometry" />
        </mxCell>
        <mxCell id="gCBwe_l6RAR-JxXOp8Bn-170" style="edgeStyle=orthogonalEdgeStyle;rounded=0;orthogonalLoop=1;jettySize=auto;html=1;exitX=0.25;exitY=0;exitDx=0;exitDy=0;entryX=0.5;entryY=1;entryDx=0;entryDy=0;endArrow=none;endFill=0;fillColor=#000000;" parent="1" source="gCBwe_l6RAR-JxXOp8Bn-18" target="gCBwe_l6RAR-JxXOp8Bn-169" edge="1">
          <mxGeometry relative="1" as="geometry" />
        </mxCell>
        <mxCell id="gCBwe_l6RAR-JxXOp8Bn-176" style="edgeStyle=orthogonalEdgeStyle;rounded=0;orthogonalLoop=1;jettySize=auto;html=1;exitX=1;exitY=0;exitDx=0;exitDy=0;entryX=0.5;entryY=1;entryDx=0;entryDy=0;endArrow=none;endFill=0;fillColor=#000000;" parent="1" source="gCBwe_l6RAR-JxXOp8Bn-18" target="gCBwe_l6RAR-JxXOp8Bn-175" edge="1">
          <mxGeometry relative="1" as="geometry" />
        </mxCell>
        <mxCell id="gCBwe_l6RAR-JxXOp8Bn-18" value="Insegnante" style="whiteSpace=wrap;html=1;align=center;" parent="1" vertex="1">
          <mxGeometry x="1060" y="245" width="100" height="40" as="geometry" />
        </mxCell>
        <mxCell id="gCBwe_l6RAR-JxXOp8Bn-21" value="" style="edgeStyle=orthogonalEdgeStyle;rounded=0;orthogonalLoop=1;jettySize=auto;html=1;endArrow=none;endFill=0;fillColor=#000000;" parent="1" source="gCBwe_l6RAR-JxXOp8Bn-19" target="gCBwe_l6RAR-JxXOp8Bn-18" edge="1">
          <mxGeometry relative="1" as="geometry" />
        </mxCell>
        <mxCell id="gCBwe_l6RAR-JxXOp8Bn-19" value="Insegna" style="shape=rhombus;perimeter=rhombusPerimeter;whiteSpace=wrap;html=1;align=center;" parent="1" vertex="1">
          <mxGeometry x="1050" y="335" width="120" height="60" as="geometry" />
        </mxCell>
        <mxCell id="gCBwe_l6RAR-JxXOp8Bn-41" style="edgeStyle=orthogonalEdgeStyle;rounded=0;orthogonalLoop=1;jettySize=auto;html=1;exitX=1;exitY=0.75;exitDx=0;exitDy=0;entryX=0;entryY=0.5;entryDx=0;entryDy=0;endArrow=none;endFill=0;fillColor=#000000;" parent="1" source="gCBwe_l6RAR-JxXOp8Bn-22" target="gCBwe_l6RAR-JxXOp8Bn-40" edge="1">
          <mxGeometry relative="1" as="geometry" />
        </mxCell>
        <mxCell id="gCBwe_l6RAR-JxXOp8Bn-80" style="edgeStyle=orthogonalEdgeStyle;rounded=0;orthogonalLoop=1;jettySize=auto;html=1;exitX=0;exitY=0;exitDx=0;exitDy=0;entryX=0.5;entryY=1;entryDx=0;entryDy=0;endArrow=none;endFill=0;fillColor=#000000;" parent="1" source="gCBwe_l6RAR-JxXOp8Bn-22" target="gCBwe_l6RAR-JxXOp8Bn-76" edge="1">
          <mxGeometry relative="1" as="geometry" />
        </mxCell>
        <mxCell id="gCBwe_l6RAR-JxXOp8Bn-83" style="edgeStyle=orthogonalEdgeStyle;rounded=0;orthogonalLoop=1;jettySize=auto;html=1;exitX=0.25;exitY=0;exitDx=0;exitDy=0;entryX=0.5;entryY=1;entryDx=0;entryDy=0;endArrow=none;endFill=0;fillColor=#000000;" parent="1" source="gCBwe_l6RAR-JxXOp8Bn-22" target="gCBwe_l6RAR-JxXOp8Bn-82" edge="1">
          <mxGeometry relative="1" as="geometry" />
        </mxCell>
        <mxCell id="gCBwe_l6RAR-JxXOp8Bn-86" style="edgeStyle=orthogonalEdgeStyle;rounded=0;orthogonalLoop=1;jettySize=auto;html=1;exitX=1;exitY=0;exitDx=0;exitDy=0;entryX=0.5;entryY=1;entryDx=0;entryDy=0;endArrow=none;endFill=0;fillColor=#000000;" parent="1" source="gCBwe_l6RAR-JxXOp8Bn-22" target="gCBwe_l6RAR-JxXOp8Bn-85" edge="1">
          <mxGeometry relative="1" as="geometry" />
        </mxCell>
        <mxCell id="gCBwe_l6RAR-JxXOp8Bn-22" value="Piscina" style="whiteSpace=wrap;html=1;align=center;" parent="1" vertex="1">
          <mxGeometry x="470" y="645" width="100" height="40" as="geometry" />
        </mxCell>
        <mxCell id="gCBwe_l6RAR-JxXOp8Bn-23" value="" style="shape=flexArrow;endArrow=classic;html=1;rounded=0;entryX=0.5;entryY=1;entryDx=0;entryDy=0;fillColor=#000000;" parent="1" edge="1">
          <mxGeometry width="50" height="50" relative="1" as="geometry">
            <mxPoint x="519.41" y="725" as="sourcePoint" />
            <mxPoint x="519.41" y="685" as="targetPoint" />
          </mxGeometry>
        </mxCell>
        <mxCell id="gCBwe_l6RAR-JxXOp8Bn-24" value="" style="endArrow=none;html=1;rounded=0;fillColor=#000000;" parent="1" edge="1">
          <mxGeometry width="50" height="50" relative="1" as="geometry">
            <mxPoint x="430" y="725" as="sourcePoint" />
            <mxPoint x="610" y="725" as="targetPoint" />
          </mxGeometry>
        </mxCell>
        <mxCell id="gCBwe_l6RAR-JxXOp8Bn-26" style="edgeStyle=orthogonalEdgeStyle;rounded=0;orthogonalLoop=1;jettySize=auto;html=1;exitX=0.5;exitY=0;exitDx=0;exitDy=0;endArrow=none;endFill=0;fillColor=#000000;" parent="1" source="gCBwe_l6RAR-JxXOp8Bn-25" edge="1">
          <mxGeometry relative="1" as="geometry">
            <mxPoint x="430" y="725" as="targetPoint" />
            <Array as="points">
              <mxPoint x="430" y="745" />
              <mxPoint x="430" y="745" />
            </Array>
          </mxGeometry>
        </mxCell>
        <mxCell id="gCBwe_l6RAR-JxXOp8Bn-91" style="edgeStyle=orthogonalEdgeStyle;rounded=0;orthogonalLoop=1;jettySize=auto;html=1;exitX=1;exitY=1;exitDx=0;exitDy=0;entryX=0.5;entryY=0;entryDx=0;entryDy=0;endArrow=none;endFill=0;fillColor=#000000;" parent="1" source="gCBwe_l6RAR-JxXOp8Bn-25" target="gCBwe_l6RAR-JxXOp8Bn-89" edge="1">
          <mxGeometry relative="1" as="geometry" />
        </mxCell>
        <mxCell id="gCBwe_l6RAR-JxXOp8Bn-94" style="edgeStyle=orthogonalEdgeStyle;rounded=0;orthogonalLoop=1;jettySize=auto;html=1;exitX=0;exitY=1;exitDx=0;exitDy=0;entryX=0.5;entryY=0;entryDx=0;entryDy=0;endArrow=none;endFill=0;fillColor=#000000;" parent="1" source="gCBwe_l6RAR-JxXOp8Bn-25" target="gCBwe_l6RAR-JxXOp8Bn-88" edge="1">
          <mxGeometry relative="1" as="geometry" />
        </mxCell>
        <mxCell id="gCBwe_l6RAR-JxXOp8Bn-25" value="Con vasca all&#39;aperto" style="whiteSpace=wrap;html=1;align=center;" parent="1" vertex="1">
          <mxGeometry x="380" y="765" width="100" height="40" as="geometry" />
        </mxCell>
        <mxCell id="gCBwe_l6RAR-JxXOp8Bn-28" style="edgeStyle=orthogonalEdgeStyle;rounded=0;orthogonalLoop=1;jettySize=auto;html=1;exitX=0.5;exitY=0;exitDx=0;exitDy=0;endArrow=none;endFill=0;fillColor=#000000;" parent="1" source="gCBwe_l6RAR-JxXOp8Bn-27" edge="1">
          <mxGeometry relative="1" as="geometry">
            <mxPoint x="610" y="725" as="targetPoint" />
            <Array as="points">
              <mxPoint x="610" y="725" />
            </Array>
          </mxGeometry>
        </mxCell>
        <mxCell id="gCBwe_l6RAR-JxXOp8Bn-27" value="Senza vasca all&#39;aperto" style="whiteSpace=wrap;html=1;align=center;" parent="1" vertex="1">
          <mxGeometry x="560" y="765" width="100" height="40" as="geometry" />
        </mxCell>
        <mxCell id="gCBwe_l6RAR-JxXOp8Bn-30" style="edgeStyle=orthogonalEdgeStyle;rounded=0;orthogonalLoop=1;jettySize=auto;html=1;exitX=0.5;exitY=1;exitDx=0;exitDy=0;entryX=0.5;entryY=0;entryDx=0;entryDy=0;endArrow=none;endFill=0;fillColor=#000000;" parent="1" source="gCBwe_l6RAR-JxXOp8Bn-29" target="gCBwe_l6RAR-JxXOp8Bn-22" edge="1">
          <mxGeometry relative="1" as="geometry" />
        </mxCell>
        <mxCell id="gCBwe_l6RAR-JxXOp8Bn-72" style="edgeStyle=orthogonalEdgeStyle;rounded=0;orthogonalLoop=1;jettySize=auto;html=1;exitX=1;exitY=1;exitDx=0;exitDy=0;entryX=0;entryY=0.5;entryDx=0;entryDy=0;endArrow=none;endFill=0;fillColor=#000000;" parent="1" source="gCBwe_l6RAR-JxXOp8Bn-29" target="gCBwe_l6RAR-JxXOp8Bn-71" edge="1">
          <mxGeometry relative="1" as="geometry">
            <Array as="points">
              <mxPoint x="550" y="420" />
            </Array>
          </mxGeometry>
        </mxCell>
        <mxCell id="gCBwe_l6RAR-JxXOp8Bn-29" value="Ultima visita" style="shape=rhombus;perimeter=rhombusPerimeter;whiteSpace=wrap;html=1;align=center;" parent="1" vertex="1">
          <mxGeometry x="460" y="365" width="120" height="60" as="geometry" />
        </mxCell>
        <mxCell id="gCBwe_l6RAR-JxXOp8Bn-34" style="edgeStyle=orthogonalEdgeStyle;rounded=0;orthogonalLoop=1;jettySize=auto;html=1;exitX=0.5;exitY=1;exitDx=0;exitDy=0;entryX=0;entryY=0.5;entryDx=0;entryDy=0;endArrow=none;endFill=0;fillColor=#000000;" parent="1" source="gCBwe_l6RAR-JxXOp8Bn-32" target="gCBwe_l6RAR-JxXOp8Bn-22" edge="1">
          <mxGeometry relative="1" as="geometry" />
        </mxCell>
        <mxCell id="gCBwe_l6RAR-JxXOp8Bn-32" value="Accede" style="shape=rhombus;perimeter=rhombusPerimeter;whiteSpace=wrap;html=1;align=center;" parent="1" vertex="1">
          <mxGeometry x="290" y="365" width="120" height="60" as="geometry" />
        </mxCell>
        <mxCell id="gCBwe_l6RAR-JxXOp8Bn-37" style="edgeStyle=orthogonalEdgeStyle;rounded=0;orthogonalLoop=1;jettySize=auto;html=1;exitX=0;exitY=0.5;exitDx=0;exitDy=0;entryX=1;entryY=0.25;entryDx=0;entryDy=0;endArrow=none;endFill=0;fillColor=#000000;" parent="1" source="gCBwe_l6RAR-JxXOp8Bn-35" target="gCBwe_l6RAR-JxXOp8Bn-22" edge="1">
          <mxGeometry relative="1" as="geometry" />
        </mxCell>
        <mxCell id="gCBwe_l6RAR-JxXOp8Bn-35" value="Location" style="shape=rhombus;perimeter=rhombusPerimeter;whiteSpace=wrap;html=1;align=center;" parent="1" vertex="1">
          <mxGeometry x="840" y="515" width="120" height="60" as="geometry" />
        </mxCell>
        <mxCell id="gCBwe_l6RAR-JxXOp8Bn-43" style="edgeStyle=orthogonalEdgeStyle;rounded=0;orthogonalLoop=1;jettySize=auto;html=1;exitX=1;exitY=0.5;exitDx=0;exitDy=0;entryX=0;entryY=0.5;entryDx=0;entryDy=0;endArrow=none;endFill=0;fillColor=#000000;" parent="1" source="gCBwe_l6RAR-JxXOp8Bn-38" target="gCBwe_l6RAR-JxXOp8Bn-39" edge="1">
          <mxGeometry relative="1" as="geometry" />
        </mxCell>
        <mxCell id="gCBwe_l6RAR-JxXOp8Bn-114" style="edgeStyle=orthogonalEdgeStyle;rounded=0;orthogonalLoop=1;jettySize=auto;html=1;exitX=0.5;exitY=0;exitDx=0;exitDy=0;entryX=0.5;entryY=1;entryDx=0;entryDy=0;endArrow=none;endFill=0;fillColor=#000000;" parent="1" source="gCBwe_l6RAR-JxXOp8Bn-38" target="gCBwe_l6RAR-JxXOp8Bn-112" edge="1">
          <mxGeometry relative="1" as="geometry" />
        </mxCell>
        <mxCell id="gCBwe_l6RAR-JxXOp8Bn-38" value="Impiego" style="whiteSpace=wrap;html=1;align=center;" parent="1" vertex="1">
          <mxGeometry x="960" y="655" width="100" height="40" as="geometry" />
        </mxCell>
        <mxCell id="gCBwe_l6RAR-JxXOp8Bn-44" style="edgeStyle=orthogonalEdgeStyle;rounded=0;orthogonalLoop=1;jettySize=auto;html=1;exitX=0.5;exitY=0;exitDx=0;exitDy=0;entryX=1;entryY=0.5;entryDx=0;entryDy=0;endArrow=none;endFill=0;fillColor=#000000;" parent="1" source="gCBwe_l6RAR-JxXOp8Bn-39" target="gCBwe_l6RAR-JxXOp8Bn-18" edge="1">
          <mxGeometry relative="1" as="geometry" />
        </mxCell>
        <mxCell id="gCBwe_l6RAR-JxXOp8Bn-39" value="Impiegato" style="shape=rhombus;perimeter=rhombusPerimeter;whiteSpace=wrap;html=1;align=center;" parent="1" vertex="1">
          <mxGeometry x="1190" y="645" width="120" height="60" as="geometry" />
        </mxCell>
        <mxCell id="gCBwe_l6RAR-JxXOp8Bn-42" style="edgeStyle=orthogonalEdgeStyle;rounded=0;orthogonalLoop=1;jettySize=auto;html=1;exitX=1;exitY=0.5;exitDx=0;exitDy=0;entryX=0;entryY=0.5;entryDx=0;entryDy=0;endArrow=none;endFill=0;fillColor=#000000;" parent="1" source="gCBwe_l6RAR-JxXOp8Bn-40" target="gCBwe_l6RAR-JxXOp8Bn-38" edge="1">
          <mxGeometry relative="1" as="geometry" />
        </mxCell>
        <mxCell id="gCBwe_l6RAR-JxXOp8Bn-40" value="Impiegante" style="shape=rhombus;perimeter=rhombusPerimeter;whiteSpace=wrap;html=1;align=center;" parent="1" vertex="1">
          <mxGeometry x="750" y="645" width="120" height="60" as="geometry" />
        </mxCell>
        <mxCell id="gCBwe_l6RAR-JxXOp8Bn-68" value="(1,n)" style="text;html=1;align=center;verticalAlign=middle;resizable=0;points=[];autosize=1;strokeColor=none;fillColor=none;" parent="1" vertex="1">
          <mxGeometry x="620" y="255" width="40" height="20" as="geometry" />
        </mxCell>
        <mxCell id="gCBwe_l6RAR-JxXOp8Bn-69" value="(1,1)" style="text;html=1;align=center;verticalAlign=middle;resizable=0;points=[];autosize=1;strokeColor=none;fillColor=none;" parent="1" vertex="1">
          <mxGeometry x="440" y="315" width="40" height="20" as="geometry" />
        </mxCell>
        <mxCell id="gCBwe_l6RAR-JxXOp8Bn-70" value="(0,n)" style="text;html=1;align=center;verticalAlign=middle;resizable=0;points=[];autosize=1;strokeColor=none;fillColor=none;" parent="1" vertex="1">
          <mxGeometry x="520" y="440" width="40" height="20" as="geometry" />
        </mxCell>
        <mxCell id="gCBwe_l6RAR-JxXOp8Bn-71" value="" style="ellipse;whiteSpace=wrap;html=1;aspect=fixed;" parent="1" vertex="1">
          <mxGeometry x="580" y="415" width="10" height="10" as="geometry" />
        </mxCell>
        <mxCell id="gCBwe_l6RAR-JxXOp8Bn-73" value="Data" style="text;html=1;align=center;verticalAlign=middle;resizable=0;points=[];autosize=1;strokeColor=none;fillColor=none;" parent="1" vertex="1">
          <mxGeometry x="590" y="410" width="40" height="20" as="geometry" />
        </mxCell>
        <mxCell id="gCBwe_l6RAR-JxXOp8Bn-74" value="(0,n)" style="text;html=1;align=center;verticalAlign=middle;resizable=0;points=[];autosize=1;strokeColor=none;fillColor=none;" parent="1" vertex="1">
          <mxGeometry x="420" y="160" width="40" height="20" as="geometry" />
        </mxCell>
        <mxCell id="gCBwe_l6RAR-JxXOp8Bn-75" value="(0,n)" style="text;html=1;align=center;verticalAlign=middle;resizable=0;points=[];autosize=1;strokeColor=none;fillColor=none;" parent="1" vertex="1">
          <mxGeometry x="430" y="665" width="40" height="20" as="geometry" />
        </mxCell>
        <mxCell id="gCBwe_l6RAR-JxXOp8Bn-76" value="" style="ellipse;whiteSpace=wrap;html=1;aspect=fixed;" parent="1" vertex="1">
          <mxGeometry x="440" y="610" width="10" height="10" as="geometry" />
        </mxCell>
        <mxCell id="gCBwe_l6RAR-JxXOp8Bn-78" style="edgeStyle=orthogonalEdgeStyle;rounded=0;orthogonalLoop=1;jettySize=auto;html=1;exitX=0.5;exitY=1;exitDx=0;exitDy=0;entryX=0.953;entryY=0.014;entryDx=0;entryDy=0;entryPerimeter=0;endArrow=none;endFill=0;fillColor=#000000;" parent="1" source="gCBwe_l6RAR-JxXOp8Bn-77" edge="1">
          <mxGeometry relative="1" as="geometry">
            <mxPoint x="535.3" y="645.5600000000001" as="targetPoint" />
          </mxGeometry>
        </mxCell>
        <mxCell id="gCBwe_l6RAR-JxXOp8Bn-77" value="" style="ellipse;whiteSpace=wrap;html=1;aspect=fixed;fillColor=#000000;" parent="1" vertex="1">
          <mxGeometry x="530" y="610" width="10" height="10" as="geometry" />
        </mxCell>
        <mxCell id="gCBwe_l6RAR-JxXOp8Bn-79" value="Nome_P" style="text;html=1;align=center;verticalAlign=middle;resizable=0;points=[];autosize=1;strokeColor=none;fillColor=none;" parent="1" vertex="1">
          <mxGeometry x="515" y="590" width="60" height="20" as="geometry" />
        </mxCell>
        <mxCell id="gCBwe_l6RAR-JxXOp8Bn-81" value="Indirizzo" style="text;html=1;align=center;verticalAlign=middle;resizable=0;points=[];autosize=1;strokeColor=none;fillColor=none;" parent="1" vertex="1">
          <mxGeometry x="410" y="590" width="60" height="20" as="geometry" />
        </mxCell>
        <mxCell id="gCBwe_l6RAR-JxXOp8Bn-82" value="" style="ellipse;whiteSpace=wrap;html=1;aspect=fixed;" parent="1" vertex="1">
          <mxGeometry x="490" y="610" width="10" height="10" as="geometry" />
        </mxCell>
        <mxCell id="gCBwe_l6RAR-JxXOp8Bn-84" value="Telefono" style="text;html=1;align=center;verticalAlign=middle;resizable=0;points=[];autosize=1;strokeColor=none;fillColor=none;" parent="1" vertex="1">
          <mxGeometry x="460" y="590" width="60" height="20" as="geometry" />
        </mxCell>
        <mxCell id="gCBwe_l6RAR-JxXOp8Bn-85" value="" style="ellipse;whiteSpace=wrap;html=1;aspect=fixed;" parent="1" vertex="1">
          <mxGeometry x="580" y="610" width="10" height="10" as="geometry" />
        </mxCell>
        <mxCell id="gCBwe_l6RAR-JxXOp8Bn-87" value="Responsabile" style="text;html=1;align=center;verticalAlign=middle;resizable=0;points=[];autosize=1;strokeColor=none;fillColor=none;" parent="1" vertex="1">
          <mxGeometry x="570" y="590" width="90" height="20" as="geometry" />
        </mxCell>
        <mxCell id="gCBwe_l6RAR-JxXOp8Bn-88" value="" style="ellipse;whiteSpace=wrap;html=1;aspect=fixed;" parent="1" vertex="1">
          <mxGeometry x="375" y="840" width="10" height="10" as="geometry" />
        </mxCell>
        <mxCell id="gCBwe_l6RAR-JxXOp8Bn-89" value="" style="ellipse;whiteSpace=wrap;html=1;aspect=fixed;" parent="1" vertex="1">
          <mxGeometry x="475" y="840" width="10" height="10" as="geometry" />
        </mxCell>
        <mxCell id="gCBwe_l6RAR-JxXOp8Bn-92" value="Inizio_periodo" style="text;html=1;align=center;verticalAlign=middle;resizable=0;points=[];autosize=1;strokeColor=none;fillColor=none;" parent="1" vertex="1">
          <mxGeometry x="340" y="850" width="90" height="20" as="geometry" />
        </mxCell>
        <mxCell id="gCBwe_l6RAR-JxXOp8Bn-93" value="Fine_periodo" style="text;html=1;align=center;verticalAlign=middle;resizable=0;points=[];autosize=1;strokeColor=none;fillColor=none;" parent="1" vertex="1">
          <mxGeometry x="435" y="850" width="90" height="20" as="geometry" />
        </mxCell>
        <mxCell id="gCBwe_l6RAR-JxXOp8Bn-95" value="Impiego presente" style="whiteSpace=wrap;html=1;align=center;" parent="1" vertex="1">
          <mxGeometry x="870" y="775" width="100" height="40" as="geometry" />
        </mxCell>
        <mxCell id="gCBwe_l6RAR-JxXOp8Bn-179" style="edgeStyle=orthogonalEdgeStyle;rounded=0;orthogonalLoop=1;jettySize=auto;html=1;exitX=0.5;exitY=1;exitDx=0;exitDy=0;endArrow=none;endFill=0;fillColor=#000000;" parent="1" source="gCBwe_l6RAR-JxXOp8Bn-96" edge="1">
          <mxGeometry relative="1" as="geometry">
            <mxPoint x="1099.857142857143" y="830" as="targetPoint" />
          </mxGeometry>
        </mxCell>
        <mxCell id="gCBwe_l6RAR-JxXOp8Bn-96" value="Impiego passato" style="whiteSpace=wrap;html=1;align=center;" parent="1" vertex="1">
          <mxGeometry x="1050" y="775" width="100" height="40" as="geometry" />
        </mxCell>
        <mxCell id="gCBwe_l6RAR-JxXOp8Bn-97" value="" style="shape=flexArrow;endArrow=classic;html=1;rounded=0;entryX=0.5;entryY=1;entryDx=0;entryDy=0;fillColor=#000000;" parent="1" edge="1">
          <mxGeometry width="50" height="50" relative="1" as="geometry">
            <mxPoint x="519.4099999999999" y="725" as="sourcePoint" />
            <mxPoint x="519.4099999999999" y="685" as="targetPoint" />
          </mxGeometry>
        </mxCell>
        <mxCell id="gCBwe_l6RAR-JxXOp8Bn-98" value="" style="shape=flexArrow;endArrow=classic;html=1;rounded=0;entryX=0.5;entryY=1;entryDx=0;entryDy=0;fillColor=#000000;" parent="1" edge="1">
          <mxGeometry width="50" height="50" relative="1" as="geometry">
            <mxPoint x="519.4099999999999" y="725" as="sourcePoint" />
            <mxPoint x="519.4099999999999" y="685" as="targetPoint" />
          </mxGeometry>
        </mxCell>
        <mxCell id="gCBwe_l6RAR-JxXOp8Bn-99" value="" style="endArrow=none;html=1;rounded=0;fillColor=#000000;" parent="1" edge="1">
          <mxGeometry width="50" height="50" relative="1" as="geometry">
            <mxPoint x="430" y="725" as="sourcePoint" />
            <mxPoint x="610" y="725" as="targetPoint" />
          </mxGeometry>
        </mxCell>
        <mxCell id="gCBwe_l6RAR-JxXOp8Bn-100" value="" style="endArrow=none;html=1;rounded=0;fillColor=#000000;" parent="1" edge="1">
          <mxGeometry width="50" height="50" relative="1" as="geometry">
            <mxPoint x="430" y="725" as="sourcePoint" />
            <mxPoint x="610" y="725" as="targetPoint" />
          </mxGeometry>
        </mxCell>
        <mxCell id="gCBwe_l6RAR-JxXOp8Bn-101" value="" style="shape=flexArrow;endArrow=classic;html=1;rounded=0;entryX=0.5;entryY=1;entryDx=0;entryDy=0;fillColor=#000000;" parent="1" edge="1">
          <mxGeometry width="50" height="50" relative="1" as="geometry">
            <mxPoint x="519.4099999999999" y="725" as="sourcePoint" />
            <mxPoint x="519.4099999999999" y="685" as="targetPoint" />
          </mxGeometry>
        </mxCell>
        <mxCell id="gCBwe_l6RAR-JxXOp8Bn-102" style="edgeStyle=orthogonalEdgeStyle;rounded=0;orthogonalLoop=1;jettySize=auto;html=1;exitX=0.5;exitY=0;exitDx=0;exitDy=0;endArrow=none;endFill=0;fillColor=#000000;" parent="1" edge="1">
          <mxGeometry relative="1" as="geometry">
            <mxPoint x="610" y="725" as="targetPoint" />
            <mxPoint x="610" y="765" as="sourcePoint" />
            <Array as="points">
              <mxPoint x="610" y="725" />
            </Array>
          </mxGeometry>
        </mxCell>
        <mxCell id="gCBwe_l6RAR-JxXOp8Bn-103" value="" style="endArrow=none;html=1;rounded=0;fillColor=#000000;" parent="1" edge="1">
          <mxGeometry width="50" height="50" relative="1" as="geometry">
            <mxPoint x="430" y="725" as="sourcePoint" />
            <mxPoint x="610" y="725" as="targetPoint" />
          </mxGeometry>
        </mxCell>
        <mxCell id="gCBwe_l6RAR-JxXOp8Bn-104" value="" style="shape=flexArrow;endArrow=classic;html=1;rounded=0;entryX=0.5;entryY=1;entryDx=0;entryDy=0;fillColor=#000000;" parent="1" edge="1">
          <mxGeometry width="50" height="50" relative="1" as="geometry">
            <mxPoint x="519.4099999999999" y="725" as="sourcePoint" />
            <mxPoint x="519.4099999999999" y="685" as="targetPoint" />
          </mxGeometry>
        </mxCell>
        <mxCell id="gCBwe_l6RAR-JxXOp8Bn-105" style="edgeStyle=orthogonalEdgeStyle;rounded=0;orthogonalLoop=1;jettySize=auto;html=1;exitX=0.5;exitY=0;exitDx=0;exitDy=0;endArrow=none;endFill=0;fillColor=#000000;" parent="1" edge="1">
          <mxGeometry relative="1" as="geometry">
            <mxPoint x="610" y="725" as="targetPoint" />
            <mxPoint x="610" y="765" as="sourcePoint" />
            <Array as="points">
              <mxPoint x="610" y="725" />
            </Array>
          </mxGeometry>
        </mxCell>
        <mxCell id="gCBwe_l6RAR-JxXOp8Bn-106" style="edgeStyle=orthogonalEdgeStyle;rounded=0;orthogonalLoop=1;jettySize=auto;html=1;exitX=0.5;exitY=0;exitDx=0;exitDy=0;endArrow=none;endFill=0;fillColor=#000000;" parent="1" edge="1">
          <mxGeometry relative="1" as="geometry">
            <mxPoint x="919.8" y="735" as="targetPoint" />
            <mxPoint x="919.8" y="775" as="sourcePoint" />
            <Array as="points">
              <mxPoint x="919.8" y="755" />
              <mxPoint x="919.8" y="755" />
            </Array>
          </mxGeometry>
        </mxCell>
        <mxCell id="gCBwe_l6RAR-JxXOp8Bn-107" value="" style="endArrow=none;html=1;rounded=0;fillColor=#000000;" parent="1" edge="1">
          <mxGeometry width="50" height="50" relative="1" as="geometry">
            <mxPoint x="919.8" y="735" as="sourcePoint" />
            <mxPoint x="1099.8" y="735" as="targetPoint" />
          </mxGeometry>
        </mxCell>
        <mxCell id="gCBwe_l6RAR-JxXOp8Bn-108" value="" style="shape=flexArrow;endArrow=classic;html=1;rounded=0;entryX=0.5;entryY=1;entryDx=0;entryDy=0;fillColor=#000000;" parent="1" edge="1">
          <mxGeometry width="50" height="50" relative="1" as="geometry">
            <mxPoint x="1009.2099999999998" y="735" as="sourcePoint" />
            <mxPoint x="1009.2099999999998" y="695" as="targetPoint" />
          </mxGeometry>
        </mxCell>
        <mxCell id="gCBwe_l6RAR-JxXOp8Bn-109" style="edgeStyle=orthogonalEdgeStyle;rounded=0;orthogonalLoop=1;jettySize=auto;html=1;exitX=0.5;exitY=0;exitDx=0;exitDy=0;endArrow=none;endFill=0;fillColor=#000000;" parent="1" edge="1">
          <mxGeometry relative="1" as="geometry">
            <mxPoint x="1099.8" y="735" as="targetPoint" />
            <mxPoint x="1099.8" y="775" as="sourcePoint" />
            <Array as="points">
              <mxPoint x="1099.8" y="735" />
            </Array>
          </mxGeometry>
        </mxCell>
        <mxCell id="gCBwe_l6RAR-JxXOp8Bn-112" value="" style="ellipse;whiteSpace=wrap;html=1;aspect=fixed;" parent="1" vertex="1">
          <mxGeometry x="1005" y="620" width="10" height="10" as="geometry" />
        </mxCell>
        <mxCell id="gCBwe_l6RAR-JxXOp8Bn-115" value="" style="endArrow=none;html=1;rounded=0;fillColor=#000000;" parent="1" edge="1">
          <mxGeometry width="50" height="50" relative="1" as="geometry">
            <mxPoint x="950" y="690" as="sourcePoint" />
            <mxPoint x="950" y="640" as="targetPoint" />
          </mxGeometry>
        </mxCell>
        <mxCell id="gCBwe_l6RAR-JxXOp8Bn-116" value="" style="endArrow=none;html=1;rounded=0;fillColor=#000000;" parent="1" edge="1">
          <mxGeometry width="50" height="50" relative="1" as="geometry">
            <mxPoint x="1070" y="690" as="sourcePoint" />
            <mxPoint x="1070" y="640" as="targetPoint" />
          </mxGeometry>
        </mxCell>
        <mxCell id="gCBwe_l6RAR-JxXOp8Bn-117" value="" style="endArrow=none;html=1;rounded=0;fillColor=#000000;" parent="1" edge="1">
          <mxGeometry width="50" height="50" relative="1" as="geometry">
            <mxPoint x="1070" y="640" as="sourcePoint" />
            <mxPoint x="950" y="640" as="targetPoint" />
          </mxGeometry>
        </mxCell>
        <mxCell id="gCBwe_l6RAR-JxXOp8Bn-118" value="" style="ellipse;whiteSpace=wrap;html=1;aspect=fixed;fillColor=#000000;" parent="1" vertex="1">
          <mxGeometry x="945" y="685" width="10" height="10" as="geometry" />
        </mxCell>
        <mxCell id="gCBwe_l6RAR-JxXOp8Bn-119" value="Data_inizio" style="text;html=1;align=center;verticalAlign=middle;resizable=0;points=[];autosize=1;strokeColor=none;fillColor=none;" parent="1" vertex="1">
          <mxGeometry x="975" y="600" width="70" height="20" as="geometry" />
        </mxCell>
        <mxCell id="gCBwe_l6RAR-JxXOp8Bn-120" value="" style="ellipse;whiteSpace=wrap;html=1;aspect=fixed;fillColor=#000000;" parent="1" vertex="1">
          <mxGeometry x="465" y="125" width="10" height="10" as="geometry" />
        </mxCell>
        <mxCell id="gCBwe_l6RAR-JxXOp8Bn-126" value="" style="edgeStyle=orthogonalEdgeStyle;rounded=0;orthogonalLoop=1;jettySize=auto;html=1;endArrow=none;endFill=0;fillColor=#000000;" parent="1" source="gCBwe_l6RAR-JxXOp8Bn-121" target="gCBwe_l6RAR-JxXOp8Bn-1" edge="1">
          <mxGeometry relative="1" as="geometry" />
        </mxCell>
        <mxCell id="gCBwe_l6RAR-JxXOp8Bn-121" value="" style="ellipse;whiteSpace=wrap;html=1;aspect=fixed;" parent="1" vertex="1">
          <mxGeometry x="515" y="125" width="10" height="10" as="geometry" />
        </mxCell>
        <mxCell id="gCBwe_l6RAR-JxXOp8Bn-124" value="CF_U" style="text;html=1;align=center;verticalAlign=middle;resizable=0;points=[];autosize=1;strokeColor=none;fillColor=none;" parent="1" vertex="1">
          <mxGeometry x="445" y="100" width="50" height="20" as="geometry" />
        </mxCell>
        <mxCell id="gCBwe_l6RAR-JxXOp8Bn-125" value="" style="ellipse;whiteSpace=wrap;html=1;aspect=fixed;" parent="1" vertex="1">
          <mxGeometry x="565" y="125" width="10" height="10" as="geometry" />
        </mxCell>
        <mxCell id="gCBwe_l6RAR-JxXOp8Bn-128" value="Nome_U" style="text;html=1;align=center;verticalAlign=middle;resizable=0;points=[];autosize=1;strokeColor=none;fillColor=none;" parent="1" vertex="1">
          <mxGeometry x="490" y="100" width="60" height="20" as="geometry" />
        </mxCell>
        <mxCell id="gCBwe_l6RAR-JxXOp8Bn-129" value="Indirizzo" style="text;html=1;align=center;verticalAlign=middle;resizable=0;points=[];autosize=1;strokeColor=none;fillColor=none;" parent="1" vertex="1">
          <mxGeometry x="540" y="100" width="60" height="20" as="geometry" />
        </mxCell>
        <mxCell id="gCBwe_l6RAR-JxXOp8Bn-130" value="" style="ellipse;whiteSpace=wrap;html=1;aspect=fixed;" parent="1" vertex="1">
          <mxGeometry x="620" y="125" width="10" height="10" as="geometry" />
        </mxCell>
        <mxCell id="gCBwe_l6RAR-JxXOp8Bn-132" value="Contatti" style="text;html=1;align=center;verticalAlign=middle;resizable=0;points=[];autosize=1;strokeColor=none;fillColor=none;" parent="1" vertex="1">
          <mxGeometry x="630" y="120" width="60" height="20" as="geometry" />
        </mxCell>
        <mxCell id="gCBwe_l6RAR-JxXOp8Bn-133" value="" style="ellipse;whiteSpace=wrap;html=1;aspect=fixed;" parent="1" vertex="1">
          <mxGeometry x="595" y="70" width="10" height="10" as="geometry" />
        </mxCell>
        <mxCell id="gCBwe_l6RAR-JxXOp8Bn-134" value="" style="ellipse;whiteSpace=wrap;html=1;aspect=fixed;" parent="1" vertex="1">
          <mxGeometry x="640" y="70" width="10" height="10" as="geometry" />
        </mxCell>
        <mxCell id="gCBwe_l6RAR-JxXOp8Bn-135" value="" style="endArrow=none;html=1;rounded=0;fillColor=#000000;exitX=0.5;exitY=0;exitDx=0;exitDy=0;entryX=0.5;entryY=1;entryDx=0;entryDy=0;" parent="1" source="gCBwe_l6RAR-JxXOp8Bn-130" target="gCBwe_l6RAR-JxXOp8Bn-134" edge="1">
          <mxGeometry width="50" height="50" relative="1" as="geometry">
            <mxPoint x="590" y="130" as="sourcePoint" />
            <mxPoint x="640" y="80" as="targetPoint" />
          </mxGeometry>
        </mxCell>
        <mxCell id="gCBwe_l6RAR-JxXOp8Bn-136" value="" style="endArrow=none;html=1;rounded=0;fillColor=#000000;exitX=0.5;exitY=0;exitDx=0;exitDy=0;" parent="1" source="gCBwe_l6RAR-JxXOp8Bn-130" edge="1">
          <mxGeometry width="50" height="50" relative="1" as="geometry">
            <mxPoint x="585" y="124.99999999999997" as="sourcePoint" />
            <mxPoint x="600" y="79.99999999999997" as="targetPoint" />
          </mxGeometry>
        </mxCell>
        <mxCell id="gCBwe_l6RAR-JxXOp8Bn-137" value="Tipo" style="text;html=1;align=center;verticalAlign=middle;resizable=0;points=[];autosize=1;strokeColor=none;fillColor=none;" parent="1" vertex="1">
          <mxGeometry x="580" y="50" width="40" height="20" as="geometry" />
        </mxCell>
        <mxCell id="gCBwe_l6RAR-JxXOp8Bn-138" value="Recapito" style="text;html=1;align=center;verticalAlign=middle;resizable=0;points=[];autosize=1;strokeColor=none;fillColor=none;" parent="1" vertex="1">
          <mxGeometry x="620" y="50" width="60" height="20" as="geometry" />
        </mxCell>
        <mxCell id="gCBwe_l6RAR-JxXOp8Bn-139" value="(1,n)" style="text;html=1;align=center;verticalAlign=middle;resizable=0;points=[];autosize=1;strokeColor=none;fillColor=none;" parent="1" vertex="1">
          <mxGeometry x="575" y="155" width="40" height="20" as="geometry" />
        </mxCell>
        <mxCell id="gCBwe_l6RAR-JxXOp8Bn-154" style="edgeStyle=orthogonalEdgeStyle;rounded=0;orthogonalLoop=1;jettySize=auto;html=1;exitX=0.5;exitY=1;exitDx=0;exitDy=0;entryX=0;entryY=0.25;entryDx=0;entryDy=0;endArrow=none;endFill=0;fillColor=#000000;" parent="1" source="gCBwe_l6RAR-JxXOp8Bn-141" target="gCBwe_l6RAR-JxXOp8Bn-14" edge="1">
          <mxGeometry relative="1" as="geometry" />
        </mxCell>
        <mxCell id="gCBwe_l6RAR-JxXOp8Bn-141" value="" style="ellipse;whiteSpace=wrap;html=1;aspect=fixed;" parent="1" vertex="1">
          <mxGeometry x="800" y="300" width="10" height="10" as="geometry" />
        </mxCell>
        <mxCell id="gCBwe_l6RAR-JxXOp8Bn-155" style="edgeStyle=orthogonalEdgeStyle;rounded=0;orthogonalLoop=1;jettySize=auto;html=1;exitX=0.5;exitY=1;exitDx=0;exitDy=0;entryX=0;entryY=0;entryDx=0;entryDy=0;endArrow=none;endFill=0;fillColor=#000000;" parent="1" source="gCBwe_l6RAR-JxXOp8Bn-142" target="gCBwe_l6RAR-JxXOp8Bn-14" edge="1">
          <mxGeometry relative="1" as="geometry">
            <Array as="points">
              <mxPoint x="840" y="345" />
            </Array>
          </mxGeometry>
        </mxCell>
        <mxCell id="gCBwe_l6RAR-JxXOp8Bn-142" value="" style="ellipse;whiteSpace=wrap;html=1;aspect=fixed;" parent="1" vertex="1">
          <mxGeometry x="835" y="300" width="10" height="10" as="geometry" />
        </mxCell>
        <mxCell id="gCBwe_l6RAR-JxXOp8Bn-156" style="edgeStyle=orthogonalEdgeStyle;rounded=0;orthogonalLoop=1;jettySize=auto;html=1;exitX=0.5;exitY=1;exitDx=0;exitDy=0;entryX=0.25;entryY=0;entryDx=0;entryDy=0;endArrow=none;endFill=0;fillColor=#000000;" parent="1" source="gCBwe_l6RAR-JxXOp8Bn-143" target="gCBwe_l6RAR-JxXOp8Bn-14" edge="1">
          <mxGeometry relative="1" as="geometry" />
        </mxCell>
        <mxCell id="gCBwe_l6RAR-JxXOp8Bn-143" value="" style="ellipse;whiteSpace=wrap;html=1;aspect=fixed;" parent="1" vertex="1">
          <mxGeometry x="870" y="300" width="10" height="10" as="geometry" />
        </mxCell>
        <mxCell id="gCBwe_l6RAR-JxXOp8Bn-157" style="edgeStyle=orthogonalEdgeStyle;rounded=0;orthogonalLoop=1;jettySize=auto;html=1;exitX=0.5;exitY=1;exitDx=0;exitDy=0;entryX=0.654;entryY=0.015;entryDx=0;entryDy=0;entryPerimeter=0;endArrow=none;endFill=0;fillColor=#000000;" parent="1" source="gCBwe_l6RAR-JxXOp8Bn-144" target="gCBwe_l6RAR-JxXOp8Bn-14" edge="1">
          <mxGeometry relative="1" as="geometry" />
        </mxCell>
        <mxCell id="gCBwe_l6RAR-JxXOp8Bn-144" value="" style="ellipse;whiteSpace=wrap;html=1;aspect=fixed;" parent="1" vertex="1">
          <mxGeometry x="910" y="300" width="10" height="10" as="geometry" />
        </mxCell>
        <mxCell id="gCBwe_l6RAR-JxXOp8Bn-145" value="Costo" style="text;html=1;align=center;verticalAlign=middle;resizable=0;points=[];autosize=1;strokeColor=none;fillColor=none;" parent="1" vertex="1">
          <mxGeometry x="775" y="280" width="50" height="20" as="geometry" />
        </mxCell>
        <mxCell id="gCBwe_l6RAR-JxXOp8Bn-146" value="Min_p" style="text;html=1;align=center;verticalAlign=middle;resizable=0;points=[];autosize=1;strokeColor=none;fillColor=none;" parent="1" vertex="1">
          <mxGeometry x="815" y="280" width="50" height="20" as="geometry" />
        </mxCell>
        <mxCell id="gCBwe_l6RAR-JxXOp8Bn-147" value="Max_p" style="text;html=1;align=center;verticalAlign=middle;resizable=0;points=[];autosize=1;strokeColor=none;fillColor=none;" parent="1" vertex="1">
          <mxGeometry x="855" y="280" width="50" height="20" as="geometry" />
        </mxCell>
        <mxCell id="gCBwe_l6RAR-JxXOp8Bn-148" value="Ora" style="text;html=1;align=center;verticalAlign=middle;resizable=0;points=[];autosize=1;strokeColor=none;fillColor=none;" parent="1" vertex="1">
          <mxGeometry x="895" y="280" width="40" height="20" as="geometry" />
        </mxCell>
        <mxCell id="gCBwe_l6RAR-JxXOp8Bn-158" style="edgeStyle=orthogonalEdgeStyle;rounded=0;orthogonalLoop=1;jettySize=auto;html=1;exitX=0.5;exitY=1;exitDx=0;exitDy=0;endArrow=none;endFill=0;fillColor=#000000;" parent="1" source="gCBwe_l6RAR-JxXOp8Bn-149" edge="1">
          <mxGeometry relative="1" as="geometry">
            <mxPoint x="950" y="350" as="targetPoint" />
          </mxGeometry>
        </mxCell>
        <mxCell id="gCBwe_l6RAR-JxXOp8Bn-149" value="" style="ellipse;whiteSpace=wrap;html=1;aspect=fixed;" parent="1" vertex="1">
          <mxGeometry x="945" y="300" width="10" height="10" as="geometry" />
        </mxCell>
        <mxCell id="gCBwe_l6RAR-JxXOp8Bn-150" value="Giorno" style="text;html=1;align=center;verticalAlign=middle;resizable=0;points=[];autosize=1;strokeColor=none;fillColor=none;" parent="1" vertex="1">
          <mxGeometry x="925" y="280" width="50" height="20" as="geometry" />
        </mxCell>
        <mxCell id="gCBwe_l6RAR-JxXOp8Bn-159" style="edgeStyle=orthogonalEdgeStyle;rounded=0;orthogonalLoop=1;jettySize=auto;html=1;exitX=0.5;exitY=1;exitDx=0;exitDy=0;entryX=1;entryY=0.25;entryDx=0;entryDy=0;endArrow=none;endFill=0;fillColor=#000000;" parent="1" source="gCBwe_l6RAR-JxXOp8Bn-151" target="gCBwe_l6RAR-JxXOp8Bn-14" edge="1">
          <mxGeometry relative="1" as="geometry" />
        </mxCell>
        <mxCell id="gCBwe_l6RAR-JxXOp8Bn-151" value="" style="ellipse;whiteSpace=wrap;html=1;aspect=fixed;" parent="1" vertex="1">
          <mxGeometry x="985" y="300" width="10" height="10" as="geometry" />
        </mxCell>
        <mxCell id="gCBwe_l6RAR-JxXOp8Bn-152" value="Attività" style="text;html=1;align=center;verticalAlign=middle;resizable=0;points=[];autosize=1;strokeColor=none;fillColor=none;" parent="1" vertex="1">
          <mxGeometry x="965" y="280" width="50" height="20" as="geometry" />
        </mxCell>
        <mxCell id="gCBwe_l6RAR-JxXOp8Bn-160" value="" style="ellipse;whiteSpace=wrap;html=1;aspect=fixed;" parent="1" vertex="1">
          <mxGeometry x="920" y="410" width="10" height="10" as="geometry" />
        </mxCell>
        <mxCell id="gCBwe_l6RAR-JxXOp8Bn-162" value="ID_Corso" style="text;html=1;align=center;verticalAlign=middle;resizable=0;points=[];autosize=1;strokeColor=none;fillColor=none;" parent="1" vertex="1">
          <mxGeometry x="900" y="420" width="70" height="20" as="geometry" />
        </mxCell>
        <mxCell id="gCBwe_l6RAR-JxXOp8Bn-163" value="" style="endArrow=none;html=1;rounded=0;fillColor=#000000;" parent="1" edge="1">
          <mxGeometry width="50" height="50" relative="1" as="geometry">
            <mxPoint x="890" y="400" as="sourcePoint" />
            <mxPoint x="950" y="400" as="targetPoint" />
          </mxGeometry>
        </mxCell>
        <mxCell id="gCBwe_l6RAR-JxXOp8Bn-164" value="" style="ellipse;whiteSpace=wrap;html=1;aspect=fixed;fillColor=#000000;" parent="1" vertex="1">
          <mxGeometry x="880" y="395" width="10" height="10" as="geometry" />
        </mxCell>
        <mxCell id="gCBwe_l6RAR-JxXOp8Bn-167" style="edgeStyle=orthogonalEdgeStyle;rounded=0;orthogonalLoop=1;jettySize=auto;html=1;exitX=0.5;exitY=1;exitDx=0;exitDy=0;entryX=0;entryY=0.25;entryDx=0;entryDy=0;endArrow=none;endFill=0;fillColor=#000000;" parent="1" source="gCBwe_l6RAR-JxXOp8Bn-165" target="gCBwe_l6RAR-JxXOp8Bn-18" edge="1">
          <mxGeometry relative="1" as="geometry">
            <Array as="points">
              <mxPoint x="1045" y="255" />
            </Array>
          </mxGeometry>
        </mxCell>
        <mxCell id="gCBwe_l6RAR-JxXOp8Bn-165" value="" style="ellipse;whiteSpace=wrap;html=1;aspect=fixed;" parent="1" vertex="1">
          <mxGeometry x="1040" y="200" width="10" height="10" as="geometry" />
        </mxCell>
        <mxCell id="gCBwe_l6RAR-JxXOp8Bn-166" value="Qualifiche" style="text;html=1;align=center;verticalAlign=middle;resizable=0;points=[];autosize=1;strokeColor=none;fillColor=none;" parent="1" vertex="1">
          <mxGeometry x="995" y="180" width="70" height="20" as="geometry" />
        </mxCell>
        <mxCell id="gCBwe_l6RAR-JxXOp8Bn-168" value="(1,n)" style="text;html=1;align=center;verticalAlign=middle;resizable=0;points=[];autosize=1;strokeColor=none;fillColor=none;" parent="1" vertex="1">
          <mxGeometry x="1010" y="235" width="40" height="20" as="geometry" />
        </mxCell>
        <mxCell id="gCBwe_l6RAR-JxXOp8Bn-169" value="" style="ellipse;whiteSpace=wrap;html=1;aspect=fixed;fillColor=#000000;" parent="1" vertex="1">
          <mxGeometry x="1075" y="200" width="10" height="10" as="geometry" />
        </mxCell>
        <mxCell id="gCBwe_l6RAR-JxXOp8Bn-171" value="CF_I" style="text;html=1;align=center;verticalAlign=middle;resizable=0;points=[];autosize=1;strokeColor=none;fillColor=none;" parent="1" vertex="1">
          <mxGeometry x="1060" y="180" width="40" height="20" as="geometry" />
        </mxCell>
        <mxCell id="gCBwe_l6RAR-JxXOp8Bn-174" style="edgeStyle=orthogonalEdgeStyle;rounded=0;orthogonalLoop=1;jettySize=auto;html=1;exitX=0.5;exitY=1;exitDx=0;exitDy=0;entryX=0.646;entryY=-0.005;entryDx=0;entryDy=0;entryPerimeter=0;endArrow=none;endFill=0;fillColor=#000000;" parent="1" source="gCBwe_l6RAR-JxXOp8Bn-172" target="gCBwe_l6RAR-JxXOp8Bn-18" edge="1">
          <mxGeometry relative="1" as="geometry" />
        </mxCell>
        <mxCell id="gCBwe_l6RAR-JxXOp8Bn-172" value="" style="ellipse;whiteSpace=wrap;html=1;aspect=fixed;" parent="1" vertex="1">
          <mxGeometry x="1120" y="200" width="10" height="10" as="geometry" />
        </mxCell>
        <mxCell id="gCBwe_l6RAR-JxXOp8Bn-173" value="Cellulare" style="text;html=1;align=center;verticalAlign=middle;resizable=0;points=[];autosize=1;strokeColor=none;fillColor=none;" parent="1" vertex="1">
          <mxGeometry x="1095" y="180" width="60" height="20" as="geometry" />
        </mxCell>
        <mxCell id="gCBwe_l6RAR-JxXOp8Bn-175" value="" style="ellipse;whiteSpace=wrap;html=1;aspect=fixed;" parent="1" vertex="1">
          <mxGeometry x="1170" y="200" width="10" height="10" as="geometry" />
        </mxCell>
        <mxCell id="gCBwe_l6RAR-JxXOp8Bn-177" value="Nome_I" style="text;html=1;align=center;verticalAlign=middle;resizable=0;points=[];autosize=1;strokeColor=none;fillColor=none;" parent="1" vertex="1">
          <mxGeometry x="1150" y="180" width="60" height="20" as="geometry" />
        </mxCell>
        <mxCell id="gCBwe_l6RAR-JxXOp8Bn-178" value="(0,1)" style="text;html=1;align=center;verticalAlign=middle;resizable=0;points=[];autosize=1;strokeColor=none;fillColor=none;" parent="1" vertex="1">
          <mxGeometry x="1120" y="225" width="40" height="20" as="geometry" />
        </mxCell>
        <mxCell id="gCBwe_l6RAR-JxXOp8Bn-180" value="" style="ellipse;whiteSpace=wrap;html=1;aspect=fixed;" parent="1" vertex="1">
          <mxGeometry x="1095" y="830" width="10" height="10" as="geometry" />
        </mxCell>
        <mxCell id="gCBwe_l6RAR-JxXOp8Bn-181" value="Data_fine" style="text;html=1;align=center;verticalAlign=middle;resizable=0;points=[];autosize=1;strokeColor=none;fillColor=none;" parent="1" vertex="1">
          <mxGeometry x="1065" y="840" width="70" height="20" as="geometry" />
        </mxCell>
        <mxCell id="gCBwe_l6RAR-JxXOp8Bn-182" value="(0,n)" style="text;html=1;align=center;verticalAlign=middle;resizable=0;points=[];autosize=1;strokeColor=none;fillColor=none;" parent="1" vertex="1">
          <mxGeometry x="600" y="315" width="40" height="20" as="geometry" />
        </mxCell>
        <mxCell id="gCBwe_l6RAR-JxXOp8Bn-183" value="(0,n)" style="text;html=1;align=center;verticalAlign=middle;resizable=0;points=[];autosize=1;strokeColor=none;fillColor=none;" parent="1" vertex="1">
          <mxGeometry x="750" y="345" width="40" height="20" as="geometry" />
        </mxCell>
        <mxCell id="gCBwe_l6RAR-JxXOp8Bn-184" value="(1,n)" style="text;html=1;align=center;verticalAlign=middle;resizable=0;points=[];autosize=1;strokeColor=none;fillColor=none;" parent="1" vertex="1">
          <mxGeometry x="1010" y="345" width="40" height="20" as="geometry" />
        </mxCell>
        <mxCell id="gCBwe_l6RAR-JxXOp8Bn-185" value="(0,n)" style="text;html=1;align=center;verticalAlign=middle;resizable=0;points=[];autosize=1;strokeColor=none;fillColor=none;" parent="1" vertex="1">
          <mxGeometry x="1115" y="290" width="40" height="20" as="geometry" />
        </mxCell>
        <mxCell id="gCBwe_l6RAR-JxXOp8Bn-186" value="(0,n)" style="text;html=1;align=center;verticalAlign=middle;resizable=0;points=[];autosize=1;strokeColor=none;fillColor=none;" parent="1" vertex="1">
          <mxGeometry x="1205" y="270" width="40" height="20" as="geometry" />
        </mxCell>
        <mxCell id="gCBwe_l6RAR-JxXOp8Bn-187" value="(1,1)" style="text;html=1;align=center;verticalAlign=middle;resizable=0;points=[];autosize=1;strokeColor=none;fillColor=none;" parent="1" vertex="1">
          <mxGeometry x="1075" y="645" width="40" height="20" as="geometry" />
        </mxCell>
        <mxCell id="gCBwe_l6RAR-JxXOp8Bn-188" value="(1,1)" style="text;html=1;align=center;verticalAlign=middle;resizable=0;points=[];autosize=1;strokeColor=none;fillColor=none;" parent="1" vertex="1">
          <mxGeometry x="910" y="650" width="40" height="20" as="geometry" />
        </mxCell>
        <mxCell id="gCBwe_l6RAR-JxXOp8Bn-189" value="(0,n)" style="text;html=1;align=center;verticalAlign=middle;resizable=0;points=[];autosize=1;strokeColor=none;fillColor=none;" parent="1" vertex="1">
          <mxGeometry x="570" y="680" width="40" height="20" as="geometry" />
        </mxCell>
        <mxCell id="gCBwe_l6RAR-JxXOp8Bn-190" value="(0,n)" style="text;html=1;align=center;verticalAlign=middle;resizable=0;points=[];autosize=1;strokeColor=none;fillColor=none;" parent="1" vertex="1">
          <mxGeometry x="700" y="625" width="40" height="20" as="geometry" />
        </mxCell>
        <mxCell id="gCBwe_l6RAR-JxXOp8Bn-191" value="(1,1)" style="text;html=1;align=center;verticalAlign=middle;resizable=0;points=[];autosize=1;strokeColor=none;fillColor=none;" parent="1" vertex="1">
          <mxGeometry x="860" y="410" width="40" height="20" as="geometry" />
        </mxCell>
        <mxCell id="dC8Jk2VTaf20xfGuy9kK-1" value="Certificato" style="whiteSpace=wrap;html=1;align=center;" vertex="1" parent="1">
          <mxGeometry x="820" y="90" width="100" height="40" as="geometry" />
        </mxCell>
        <mxCell id="dC8Jk2VTaf20xfGuy9kK-2" style="edgeStyle=orthogonalEdgeStyle;rounded=0;orthogonalLoop=1;jettySize=auto;html=1;exitX=0.5;exitY=1;exitDx=0;exitDy=0;endArrow=none;endFill=0;fillColor=#000000;" edge="1" parent="1" source="dC8Jk2VTaf20xfGuy9kK-3" target="dC8Jk2VTaf20xfGuy9kK-1">
          <mxGeometry relative="1" as="geometry" />
        </mxCell>
        <mxCell id="dC8Jk2VTaf20xfGuy9kK-3" value="" style="ellipse;whiteSpace=wrap;html=1;aspect=fixed;" vertex="1" parent="1">
          <mxGeometry x="865" y="45" width="10" height="10" as="geometry" />
        </mxCell>
        <mxCell id="dC8Jk2VTaf20xfGuy9kK-4" style="edgeStyle=orthogonalEdgeStyle;rounded=0;orthogonalLoop=1;jettySize=auto;html=1;exitX=0.5;exitY=1;exitDx=0;exitDy=0;entryX=0.957;entryY=0.025;entryDx=0;entryDy=0;entryPerimeter=0;endArrow=none;endFill=0;fillColor=#000000;" edge="1" parent="1" source="dC8Jk2VTaf20xfGuy9kK-5" target="dC8Jk2VTaf20xfGuy9kK-1">
          <mxGeometry relative="1" as="geometry" />
        </mxCell>
        <mxCell id="dC8Jk2VTaf20xfGuy9kK-5" value="" style="ellipse;whiteSpace=wrap;html=1;aspect=fixed;" vertex="1" parent="1">
          <mxGeometry x="910" y="45" width="10" height="10" as="geometry" />
        </mxCell>
        <mxCell id="dC8Jk2VTaf20xfGuy9kK-6" value="Medico" style="text;html=1;align=center;verticalAlign=middle;resizable=0;points=[];autosize=1;strokeColor=none;fillColor=none;" vertex="1" parent="1">
          <mxGeometry x="895" y="25" width="50" height="20" as="geometry" />
        </mxCell>
        <mxCell id="dC8Jk2VTaf20xfGuy9kK-7" value="Età" style="text;html=1;align=center;verticalAlign=middle;resizable=0;points=[];autosize=1;strokeColor=none;fillColor=none;" vertex="1" parent="1">
          <mxGeometry x="855" y="25" width="30" height="20" as="geometry" />
        </mxCell>
        <mxCell id="dC8Jk2VTaf20xfGuy9kK-8" value="(1,1)" style="text;html=1;align=center;verticalAlign=middle;resizable=0;points=[];autosize=1;strokeColor=none;fillColor=none;" vertex="1" parent="1">
          <mxGeometry x="780" y="110" width="40" height="20" as="geometry" />
        </mxCell>
        <mxCell id="dC8Jk2VTaf20xfGuy9kK-9" style="edgeStyle=orthogonalEdgeStyle;rounded=0;orthogonalLoop=1;jettySize=auto;html=1;exitX=0.5;exitY=1;exitDx=0;exitDy=0;entryX=0.051;entryY=0.021;entryDx=0;entryDy=0;entryPerimeter=0;endArrow=none;endFill=0;" edge="1" parent="1" source="dC8Jk2VTaf20xfGuy9kK-10" target="dC8Jk2VTaf20xfGuy9kK-1">
          <mxGeometry relative="1" as="geometry" />
        </mxCell>
        <mxCell id="dC8Jk2VTaf20xfGuy9kK-10" value="" style="ellipse;whiteSpace=wrap;html=1;aspect=fixed;" vertex="1" parent="1">
          <mxGeometry x="820" y="45" width="10" height="10" as="geometry" />
        </mxCell>
        <mxCell id="dC8Jk2VTaf20xfGuy9kK-11" value="Data_consegna" style="text;html=1;align=center;verticalAlign=middle;resizable=0;points=[];autosize=1;strokeColor=none;fillColor=none;" vertex="1" parent="1">
          <mxGeometry x="765" y="25" width="100" height="20" as="geometry" />
        </mxCell>
        <mxCell id="dC8Jk2VTaf20xfGuy9kK-12" value="" style="endArrow=none;html=1;rounded=0;" edge="1" parent="1">
          <mxGeometry width="50" height="50" relative="1" as="geometry">
            <mxPoint x="780" y="135" as="sourcePoint" />
            <mxPoint x="780" y="75" as="targetPoint" />
          </mxGeometry>
        </mxCell>
        <mxCell id="dC8Jk2VTaf20xfGuy9kK-13" value="" style="endArrow=none;html=1;rounded=0;" edge="1" parent="1">
          <mxGeometry width="50" height="50" relative="1" as="geometry">
            <mxPoint x="840" y="75" as="sourcePoint" />
            <mxPoint x="780" y="75" as="targetPoint" />
          </mxGeometry>
        </mxCell>
        <mxCell id="dC8Jk2VTaf20xfGuy9kK-14" value="" style="ellipse;whiteSpace=wrap;html=1;aspect=fixed;fillColor=#000000;" vertex="1" parent="1">
          <mxGeometry x="775" y="130" width="10" height="10" as="geometry" />
        </mxCell>
      </root>
    </mxGraphModel>
  </diagram>
</mxfile>
